<?xml version="1.0" encoding="UTF-8" standalone="no"?>
<!-- Created with Inkscape (http://www.inkscape.org/) -->

<svg
   xmlns:dc="http://purl.org/dc/elements/1.1/"
   xmlns:cc="http://creativecommons.org/ns#"
   xmlns:rdf="http://www.w3.org/1999/02/22-rdf-syntax-ns#"
   xmlns:svg="http://www.w3.org/2000/svg"
   xmlns="http://www.w3.org/2000/svg"
   xmlns:xlink="http://www.w3.org/1999/xlink"
   xmlns:sodipodi="http://sodipodi.sourceforge.net/DTD/sodipodi-0.dtd"
   xmlns:inkscape="http://www.inkscape.org/namespaces/inkscape"
   width="14"
   height="14"
   viewBox="0 0 3.7041666 3.7041665"
   version="1.1"
   id="svg8"
   inkscape:version="0.92.5 (2060ec1f9f, 2020-04-08)"
   sodipodi:docname="news.svg">
  <defs
     id="defs2">
    <linearGradient
       inkscape:collect="always"
       id="linearGradient6663">
      <stop
         style="stop-color:#fdf400;stop-opacity:1"
         offset="0"
         id="stop6659" />
      <stop
         style="stop-color:#fdd269;stop-opacity:1"
         offset="1"
         id="stop6661" />
    </linearGradient>
    <marker
       inkscape:stockid="Arrow1Lstart"
       orient="auto"
       refY="0"
       refX="0"
       id="Arrow1Lstart"
       style="overflow:visible"
       inkscape:isstock="true">
      <path
         id="path4792"
         d="M 0,0 5,-5 -12.5,0 5,5 Z"
         style="fill:#fdeb69;fill-opacity:1;fill-rule:evenodd;stroke:#000000;stroke-width:1.00000003pt;stroke-opacity:1"
         transform="matrix(0.8,0,0,0.8,10,0)"
         inkscape:connector-curvature="0" />
    </marker>
    <radialGradient
       inkscape:collect="always"
       xlink:href="#linearGradient6663"
       id="radialGradient6667"
       cx="104.97814"
       cy="148.44496"
       fx="104.97814"
       fy="148.44496"
       r="1.716235"
       gradientTransform="matrix(1,0,0,0.95655772,0.24985466,6.12385)"
       gradientUnits="userSpaceOnUse" />
  </defs>
  <sodipodi:namedview
     id="base"
     pagecolor="#ffffff"
     bordercolor="#666666"
     borderopacity="1.0"
     inkscape:pageopacity="0.0"
     inkscape:pageshadow="2"
     inkscape:zoom="63.356768"
     inkscape:cx="1.6056944"
     inkscape:cy="4.5326003"
     inkscape:document-units="mm"
     inkscape:current-layer="layer1"
     showgrid="false"
     fit-margin-top="0"
     fit-margin-left="0"
     fit-margin-right="0"
     fit-margin-bottom="0"
     units="px"
     inkscape:window-width="2560"
     inkscape:window-height="1410"
     inkscape:window-x="1680"
     inkscape:window-y="1110"
     inkscape:window-maximized="1" />
  <metadata
     id="metadata5">
    <rdf:RDF>
      <cc:Work
         rdf:about="">
        <dc:format>image/svg+xml</dc:format>
        <dc:type
           rdf:resource="http://purl.org/dc/dcmitype/StillImage" />
        <dc:title></dc:title>
      </cc:Work>
    </rdf:RDF>
  </metadata>
  <g
     inkscape:label="Layer 1"
     inkscape:groupmode="layer"
     id="layer1"
     transform="translate(-103.41306,-146.22474)">
    <path
       sodipodi:type="star"
       style="opacity:1;fill:url(#radialGradient6667);fill-opacity:1;fill-rule:nonzero;stroke:none;stroke-width:0.30000001;stroke-linecap:round;stroke-linejoin:round;stroke-miterlimit:4.4000001;stroke-dasharray:none;stroke-dashoffset:0;stroke-opacity:0.99607843;paint-order:normal"
       id="path4790-0"
       sodipodi:sides="5"
       sodipodi:cx="105.23791"
       sodipodi:cy="148.28288"
       sodipodi:r1="1.8048424"
       sodipodi:r2="0.73998547"
       sodipodi:arg1="0.92467742"
       sodipodi:arg2="1.552996"
       inkscape:flatsided="false"
       inkscape:rounded="0"
       inkscape:randomized="0"
       d="m 106.32459,149.72392 -1.07351,-0.70117 -1.04787,0.73893 0.33511,-1.23764 -1.02657,-0.76824 1.28062,-0.0637 0.41341,-1.21373 0.45636,1.19824 1.28208,0.0181 -0.99859,0.8043 z"
       inkscape:transform-center-x="0.00074209413"
       inkscape:transform-center-y="-0.17185508"
       transform="rotate(0.98170864,110.48097,148.63169)" />
    <path
       style="color:#000000;font-style:normal;font-variant:normal;font-weight:normal;font-stretch:normal;font-size:medium;line-height:normal;font-family:sans-serif;font-variant-ligatures:normal;font-variant-position:normal;font-variant-caps:normal;font-variant-numeric:normal;font-variant-alternates:normal;font-feature-settings:normal;text-indent:0;text-align:start;text-decoration:none;text-decoration-line:none;text-decoration-style:solid;text-decoration-color:#000000;letter-spacing:normal;word-spacing:normal;text-transform:none;writing-mode:lr-tb;direction:ltr;text-orientation:mixed;dominant-baseline:auto;baseline-shift:baseline;text-anchor:start;white-space:normal;shape-padding:0;clip-rule:nonzero;display:inline;overflow:visible;visibility:visible;opacity:1;isolation:auto;mix-blend-mode:normal;color-interpolation:sRGB;color-interpolation-filters:linearRGB;solid-color:#000000;solid-opacity:1;vector-effect:none;fill:#eea102;fill-opacity:0.99607843;fill-rule:nonzero;stroke:none;stroke-width:0.29637131;stroke-linecap:round;stroke-linejoin:round;stroke-miterlimit:4.4000001;stroke-dasharray:none;stroke-dashoffset:0;stroke-opacity:1;paint-order:normal;color-rendering:auto;image-rendering:auto;shape-rendering:auto;text-rendering:auto;enable-background:accumulate"
       d="m 105.25158,146.31473 a 0.14811669,0.14828431 0.98170864 0 0 -0.12706,0.0982 l -0.39491,1.0977 -1.16557,0.0379 a 0.14811669,0.14828431 0.98170864 0 0 -0.0855,0.265 l 0.92125,0.71476 -0.32398,1.12208 a 0.14811669,0.14828431 0.98170864 0 0 0.22675,0.16222 l 0.96208,-0.65547 0.96468,0.65567 a 0.14811669,0.14828431 0.98170864 0 0 0.22653,-0.16412 l -0.32601,-1.12163 0.92068,-0.71603 a 0.14811669,0.14828431 0.98170864 0 0 -0.0861,-0.266 l -1.16432,-0.0353 -0.3978,-1.09777 a 0.14811669,0.14828431 0.98170864 0 0 -0.15068,-0.0972 z m 0.0131,0.58335 0.29093,0.80631 a 0.14811669,0.14828431 0.98170864 0 0 0.13332,0.0989 l 0.85395,0.0262 -0.6744,0.52522 a 0.14811669,0.14828431 0.98170864 0 0 -0.0509,0.15939 l 0.23856,0.82279 -0.7073,-0.48133 a 0.14811669,0.14828431 0.98170864 0 0 -0.16584,-8.4e-4 l -0.70839,0.48216 0.23782,-0.82233 a 0.14811669,0.14828431 0.98170864 0 0 -0.0513,-0.15921 l -0.67573,-0.52327 0.85489,-0.0279 a 0.14811669,0.14828431 0.98170864 0 0 0.13476,-0.0981 z"
       id="path4790"
       inkscape:connector-curvature="0" />
  </g>
</svg>
